<svg width="90" height="85" viewBox="0 0 90 85" fill="none" xmlns="http://www.w3.org/2000/svg">
<path d="M83.193 66.925H77.3673L53.3739 30.079H53.1337C53.454 34.4033 53.6141 38.3671 53.6141 41.9706V66.925H48.8995V23.0222H54.6651L78.5985 59.718H78.8387C78.7987 59.1774 78.7086 57.4457 78.5685 54.5229C78.4283 51.58 78.3783 49.478 78.4183 48.2167V23.0222H83.193V66.925Z" fill="#D9D9D9"/>
<path d="M26.0831 24.097C25.8251 23.452 25.3091 23.065 24.5996 23.065H18.6011C17.8916 23.065 17.3756 23.452 17.1176 24.097L0.476632 68.215C7.82963 66.925 13.4089 62.6357 16.5049 52.6382C17.9561 55.8955 21.3746 58.0885 26.5991 58.0885H28.9534L31.5011 65.893C31.7591 66.667 32.2106 66.925 32.9201 66.925H40.5956C41.3051 66.925 41.7566 66.538 41.7566 65.9575C41.7566 65.8285 41.6921 65.635 41.6276 65.4415L26.0831 24.097ZM21.6326 35.836L26.3411 50.155H17.2789L21.6326 35.836Z" fill="#FF3434"/>
</svg>
