<svg width="197" height="69" viewBox="0 0 197 69" fill="none" xmlns="http://www.w3.org/2000/svg">
<path d="M25.7195 2.74182C25.4615 2.09682 24.9455 1.70982 24.236 1.70982H18.2375C17.528 1.70982 17.012 2.09682 16.754 2.74182L0.113 46.8598C7.466 45.5698 13.0453 41.2806 16.1413 31.2831C17.5925 34.5403 21.011 36.7333 26.2355 36.7333H28.5898L31.1375 44.5378C31.3955 45.3118 31.847 45.5698 32.5565 45.5698H40.232C40.9415 45.5698 41.393 45.1828 41.393 44.6023C41.393 44.4733 41.3285 44.2798 41.264 44.0863L25.7195 2.74182ZM21.269 14.4808L25.9775 28.7998H16.9153L21.269 14.4808ZM45.1788 46.8598C50.7903 45.5698 54.8538 41.4418 54.8538 31.4443V24.6073C54.8538 20.2858 54.0153 18.4153 52.9188 16.0933L53.1768 15.8998L72.5913 44.7313C72.9783 45.3118 73.4943 45.5698 74.1393 45.5698H80.9118C81.7504 45.5698 82.2018 45.1183 82.2018 44.2798V0.419821C76.5904 1.70982 72.5268 5.83782 72.5268 15.8353V22.6723C72.5268 26.9938 73.3653 28.8643 74.4618 31.1863L74.2038 31.3798L54.7893 2.54832C54.4023 1.96782 53.8863 1.70982 53.2413 1.70982H46.4688C45.6303 1.70982 45.1788 2.16132 45.1788 2.99982V46.8598ZM108.426 10.4818C109.264 10.4818 109.716 10.0303 109.716 9.19182V2.99982C109.716 2.16132 109.264 1.70982 108.426 1.70982H88.8176C87.9791 1.70982 87.5276 2.16132 87.5276 2.99982V9.19182C87.5276 10.0303 87.9791 10.4818 88.8176 10.4818H100.847C96.6221 12.1266 93.7841 16.5771 93.7841 23.3173V36.7978H88.8176C87.9791 36.7978 87.5276 37.2493 87.5276 38.0878V44.2798C87.5276 45.1183 87.9791 45.5698 88.8176 45.5698H108.426C109.264 45.5698 109.716 45.1183 109.716 44.2798V38.0878C109.716 37.2493 109.264 36.7978 108.426 36.7978H103.459V10.4818H108.426ZM157.603 2.80632C157.409 2.09682 156.958 1.70982 156.184 1.70982H149.54C148.831 1.70982 148.315 2.09682 148.121 2.80632L139.898 29.1223L131.803 2.80632C131.609 2.09682 131.093 1.70982 130.384 1.70982H123.74C122.966 1.70982 122.515 2.09682 122.321 2.80632L111.808 46.8598C117.871 46.8598 122.837 42.3448 124.772 32.8633L127.868 18.0283L136.963 46.8598C141.349 45.6988 144.316 42.9253 147.218 33.5728L152.056 18.0606L157.538 44.4088C157.667 45.1828 158.183 45.5698 158.957 45.5698H166.31C167.213 45.5698 167.665 44.9893 167.471 44.1508L157.603 2.80632ZM195.649 10.4818C196.487 10.4818 196.939 10.0303 196.939 9.19182V2.99982C196.939 2.16132 196.487 1.70982 195.649 1.70982H172.816C171.977 1.70982 171.526 2.16132 171.526 2.99982V9.19182C171.526 10.0303 171.977 10.4818 172.816 10.4818H178.589C174.364 12.1266 171.526 16.5771 171.526 23.3173V44.2798C171.526 45.1183 171.977 45.5698 172.816 45.5698H195.649C196.487 45.5698 196.939 45.1183 196.939 44.2798V38.0878C196.939 37.2493 196.487 36.7978 195.649 36.7978H181.201V21.0921C182.749 24.8008 186.748 27.3163 192.811 27.3163H195.004C195.842 27.3163 196.294 26.8648 196.294 26.0263V19.8343C196.294 18.9958 195.842 18.5443 195.004 18.5443H181.201V10.4818H195.649Z" fill="#FF3434"/>
<path d="M72.9595 68.5698H71.1597L63.7471 57.1865H63.6729C63.7718 58.5225 63.8213 59.7471 63.8213 60.8604V68.5698H62.3647V55.0063H64.146L71.54 66.3433H71.6143C71.6019 66.1763 71.5741 65.6413 71.5308 64.7383C71.4875 63.8291 71.472 63.1797 71.4844 62.79V55.0063H72.9595V68.5698ZM93.75 68.5698H86.189V55.0063H93.75V56.4072H87.7661V60.7769H93.3882V62.1685H87.7661V67.1597H93.75V68.5698ZM107.842 62.9292V68.5698H106.265V55.0063H109.985C111.649 55.0063 112.877 55.3249 113.668 55.9619C114.466 56.599 114.865 57.5576 114.865 58.8379C114.865 60.6315 113.956 61.8438 112.138 62.4746L115.821 68.5698H113.956L110.672 62.9292H107.842ZM107.842 61.5747H110.004C111.117 61.5747 111.934 61.3551 112.453 60.916C112.973 60.4707 113.232 59.8058 113.232 58.9214C113.232 58.0246 112.966 57.3783 112.435 56.9824C111.909 56.5866 111.062 56.3887 109.893 56.3887H107.842V61.5747ZM138.337 61.6582C138.337 63.8971 137.728 65.6104 136.509 66.7979C135.297 67.9792 133.55 68.5698 131.268 68.5698H127.51V55.0063H131.667C133.776 55.0063 135.415 55.5908 136.583 56.7598C137.752 57.9287 138.337 59.5615 138.337 61.6582ZM136.667 61.7139C136.667 59.945 136.222 58.6121 135.331 57.7153C134.447 56.8185 133.129 56.3701 131.379 56.3701H129.087V67.2061H131.008C132.888 67.2061 134.301 66.7453 135.248 65.8237C136.194 64.896 136.667 63.526 136.667 61.7139Z" fill="#D9D9D9"/>
</svg>
